<?xml version="1.0" standalone="no"?>
<!DOCTYPE svg PUBLIC "-//W3C//DTD SVG 20010904//EN"
 "http://www.w3.org/TR/2001/REC-SVG-20010904/DTD/svg10.dtd">
<svg version="1.0" xmlns="http://www.w3.org/2000/svg"
 width="200.000000pt" height="200.000000pt" viewBox="0 0 200.000000 200.000000"
 preserveAspectRatio="xMidYMid meet">
<metadata>
Created by potrace 1.16, written by Peter Selinger 2001-2019
</metadata>
<g transform="translate(0.000000,200.000000) scale(0.100000,-0.100000)"
fill="#000000" stroke="none">
<path d="M383 1536 l-28 -24 -3 -199 c-3 -190 -2 -200 18 -226 43 -54 147 -55
190 0 17 22 20 40 20 134 l0 109 -55 0 -55 0 0 -35 c0 -28 4 -35 20 -35 18 0
20 -7 20 -59 0 -64 -13 -85 -52 -79 l-23 3 0 180 0 180 23 3 c34 5 52 -15 52
-59 0 -38 1 -39 35 -39 35 0 35 0 35 46 0 84 -37 123 -117 124 -41 0 -58 -5
-80 -24z"/>
<path d="M668 1531 l-33 -29 -3 -189 c-2 -173 -1 -191 17 -220 41 -65 162 -65
201 0 18 28 20 51 20 205 0 231 -15 262 -125 262 -35 0 -52 -6 -77 -29z m111
-55 c8 -9 11 -66 9 -182 l-3 -169 -35 0 -35 0 -3 169 c-3 174 2 196 38 196 10
0 23 -6 29 -14z"/>
<path d="M927 1553 c-4 -3 -7 -118 -7 -255 l0 -248 35 0 35 0 2 168 3 167 18
-105 c10 -58 22 -133 28 -167 l11 -63 39 0 c24 0 39 5 39 13 1 6 11 82 25 167
l23 155 1 -167 1 -168 40 0 40 0 -2 253 -3 252 -54 0 -55 0 -12 -85 c-27 -180
-41 -254 -46 -240 -3 8 -16 78 -28 155 -29 188 -23 175 -79 175 -26 0 -51 -3
-54 -7z"/>
<path d="M1294 1543 c87 -286 96 -322 96 -407 l0 -86 40 0 40 0 0 84 c0 83 4
100 96 409 5 16 1 18 -33 15 l-38 -3 -27 -103 c-15 -57 -29 -106 -32 -109 -2
-3 -9 12 -15 33 -5 22 -18 71 -28 109 l-18 70 -43 3 c-38 3 -43 1 -38 -15z"/>
<path d="M414 990 c-12 -4 -31 -21 -43 -36 -20 -25 -21 -38 -21 -216 0 -206 6
-234 55 -256 34 -15 93 -15 125 1 35 17 60 73 60 135 l0 52 -40 0 -39 0 -3
-56 c-3 -64 -23 -88 -55 -68 -16 10 -18 31 -18 190 l0 179 29 3 c35 4 46 -10
46 -60 0 -38 0 -38 40 -38 l40 0 0 40 c0 57 -23 106 -59 124 -32 17 -83 20
-117 6z"/>
<path d="M686 974 c-12 -11 -16 -36 -16 -93 0 -70 -3 -80 -25 -101 -31 -29
-31 -37 -3 -68 26 -26 24 -21 26 -124 2 -92 14 -108 78 -108 40 0 44 2 44 24
0 21 -6 25 -32 28 l-33 3 -3 90 c-2 62 -7 94 -18 106 -13 14 -13 18 0 28 11 9
16 37 18 94 l3 82 33 3 c26 3 32 7 32 28 0 22 -4 24 -44 24 -27 0 -51 -6 -60
-16z"/>
<path d="M840 965 c0 -21 5 -25 29 -25 l29 0 3 -85 c3 -62 8 -88 19 -95 13 -8
13 -13 -3 -39 -12 -21 -17 -51 -17 -110 l0 -81 -30 0 c-25 0 -30 -4 -30 -25 0
-23 4 -25 43 -25 66 0 77 18 77 123 0 80 2 89 25 109 14 12 25 26 25 31 0 5
-11 20 -25 33 -23 21 -25 31 -25 102 0 94 -13 112 -78 112 -38 0 -42 -2 -42
-25z"/>
<path d="M1052 733 l3 -258 87 2 c153 3 160 15 156 270 l-3 185 -33 29 c-31
27 -37 29 -122 29 l-90 0 2 -257z m156 175 c17 -17 17 -329 0 -346 -7 -7 -27
-12 -45 -12 l-33 0 0 185 0 185 33 0 c18 0 38 -5 45 -12z"/>
<path d="M1352 733 l3 -258 105 0 105 0 3 38 3 37 -70 0 -71 0 0 75 0 75 55 0
55 0 0 35 0 35 -55 0 -55 0 0 75 0 75 70 0 70 0 0 35 0 35 -110 0 -110 0 2
-257z"/>
</g>
</svg>
